<svg xmlns="http://www.w3.org/2000/svg" width="220" height="220" viewBox="0 0 220 220">
  <rect width="220" height="220" fill="#fff"/>
  <ellipse cx="110" cy="126" rx="34" ry="22" fill="#fff" stroke="#000" stroke-width="3"/>
  <circle cx="96" cy="112" r="4" fill="#fff" stroke="#000" stroke-width="2"/>
  <circle cx="124" cy="112" r="4" fill="#fff" stroke="#000" stroke-width="2"/>
  <circle cx="96" cy="112" r="1.5" fill="#000"/>
  <circle cx="124" cy="112" r="1.5" fill="#000"/>
  <path d="M80 124 Q64 108 54 118" fill="none" stroke="#000" stroke-width="3"/>
  <path d="M140 124 Q156 108 166 118" fill="none" stroke="#000" stroke-width="3"/>
  <path d="M54 118 Q44 108 40 94" fill="none" stroke="#000" stroke-width="3"/>
  <path d="M166 118 Q176 108 180 94" fill="none" stroke="#000" stroke-width="3"/>
  <line x1="86" y1="142" x2="68" y2="158" stroke="#000" stroke-width="3"/>
  <line x1="96" y1="146" x2="84" y2="166" stroke="#000" stroke-width="3"/>
  <line x1="104" y1="148" x2="98" y2="170" stroke="#000" stroke-width="3"/>
  <line x1="116" y1="148" x2="122" y2="170" stroke="#000" stroke-width="3"/>
  <line x1="124" y1="146" x2="136" y2="166" stroke="#000" stroke-width="3"/>
  <line x1="134" y1="142" x2="152" y2="158" stroke="#000" stroke-width="3"/>
  <text x="12" y="206" font-size="14" font-family="Courier New, monospace">ferris sample</text>
</svg>
